<?xml version="1.0" encoding="UTF-8"?>
<svg width="29px" height="23px" viewBox="0 0 29 23" version="1.1" xmlns="http://www.w3.org/2000/svg" xmlns:xlink="http://www.w3.org/1999/xlink">
    <!-- Generator: Sketch 55.2 (78181) - https://sketchapp.com -->
    <title>rhel</title>
    <desc>Created with Sketch.</desc>
    <g id="Page-1" stroke="none" stroke-width="1" fill="none" fill-rule="evenodd">
        <g id="rhel" transform="translate(0.600000, 0.000000)" fill-rule="nonzero">
            <path d="M18.7056,13.4616 C20.5488,13.4616 23.2152,13.062 23.2152,10.7556 C23.220719,10.5778258 23.205415,10.4000165 23.1696,10.2258 L22.0716,5.2104 C21.8184,4.107 21.5958,3.6066 19.7544,2.6376 C18.3252,1.869 15.2124,0.5976 14.2944,0.5976 C13.437,0.5976 13.188,1.7598 12.1656,1.7598 C11.1816,1.7598 10.4508,0.8922 9.5304,0.8922 C8.6466,0.8922 8.0706,1.5258 7.6254,2.8296 C7.6254,2.8296 6.3864,6.5058 6.2274,7.0386 C6.20215185,7.13650748 6.19123824,7.23755945 6.195,7.3386 C6.195,8.7672 11.5428,13.4526 18.708,13.4526 M23.5002,11.6892 C23.6365786,12.2027479 23.7219918,12.7284909 23.7552,13.2588 C23.7552,15.4284 21.4362,16.6326 18.3882,16.6326 C11.4972,16.6398 5.4606,12.3936 5.4606,9.5868 C5.46004759,9.19730883 5.53566658,8.81146853 5.6832,8.451 C3.2076,8.58 0.0006,9.0462 0.0006,12.0246 C0.0006,16.9032 10.989,22.9164 19.6896,22.9164 C26.3604,22.9164 28.0422,19.7424 28.0422,17.2368 C28.0422,15.2658 26.4222,13.0278 23.5002,11.6916" id="a4240430-ad8a-419d-8d6c-db643d766acb" fill="#EE0000"></path>
            <path d="M23.4978,11.8446 C23.6341786,12.3581479 23.7195918,12.8838909 23.7528,13.4142 C23.7528,15.5838 21.4338,16.7880041 18.3858,16.7880041 C11.4972,16.7928 5.46299703,12.5466 5.46299703,9.7398 C5.46245037,9.3503091 5.53806925,8.96446934 5.6856,8.604 L6.2256,7.2 C6.20086573,7.29616328 6.18995614,7.39535969 6.1932,7.4946 C6.1932,8.9232 11.541,13.6086 18.7062,13.6086 C20.5494,13.6086 23.2158,13.209 23.2158,10.9026 C23.2213165,10.7248259 23.2060125,10.5470169 23.1702,10.3728 L23.4978,11.8446 Z" id="f72331e7-d283-4f6d-9965-aa918d2f287b" fill="#000000"></path>
        </g>
    </g>
</svg>