<?xml version="1.0" encoding="UTF-8"?>
<svg width="601px" height="158px" viewBox="0 0 601 158" version="1.1" xmlns="http://www.w3.org/2000/svg" xmlns:xlink="http://www.w3.org/1999/xlink">
    <!-- Generator: Sketch 55.2 (78181) - https://sketchapp.com -->
    <title>Shape</title>
    <desc>Created with Sketch.</desc>
    <g id="Page-1" stroke="none" stroke-width="1" fill="none" fill-rule="evenodd">
        <g id="crossfit" fill="#FFFFFF" fill-rule="nonzero">
            <path d="M41.5,157.4 C16.8,157.4 0.4,141.1 0.4,125.8 L0.4,31.7 C0.4,16.4 17,0.1 41.5,0.1 C65.7,0.1 81.5,16.4 81.5,31.7 L81.5,60.8 L48.5,60.8 L48.5,36.3 C48.5,32.3 45.3,29.8 41.5,29.8 C37.2,29.8 34.2,32.3 34.2,36.3 L34.2,121.3 C34.2,125.3 37.4,127.8 41.5,127.8 C45.3,127.8 48.5,125.3 48.5,121.3 L48.5,96.8 L81.6004719,96.8 L81.6004719,125.9 C81.7,141.1 65.9,157.4 41.5,157.4 Z M123.3,87.4 L123.3,154.5 L91,154.5 L91,40.6 L121.2,40.6 L123.3,52.6 C128,45.5 134.7,40.6 149.4,40.6 L149.4,67.7 C131.9,67.5 123.3,77.1 123.3,87.4 Z M194.9,156.4 C173.4,156.4 156,145.3 156,128.6 L156,68.5 C156,51.4 173.6,40.5 194.9,40.5 C216.2,40.5 233.8,51.6 233.8,68.5 L233.8,128.5 C233.8,145.5 216.2,156.4 194.9,156.4 Z M201.7,69.9 C201.7,66.1 198.5,64.4 194.7,64.4 C190.9,64.4 187.9,66.1 187.9,69.9 L187.9,127 C187.9,130.8 190.7,132.5 194.7,132.5 C198.5,132.5 201.7,130.8 201.7,127 L201.7,69.9 Z M279.7,156.4 C256.1,156.4 242.2,145.3 242.2,128.6 L242.2,117 L271.5,117 L271.5,126.7 C271.5,130.5 274.3,133.2 279.1,133.2 C283.8,133.2 286.5,131.3 286.5,124.8 C286.5,114.7 279.1,111.7 262,102.8 C246.2,94.9 242.5,83.7 242.5,71.6 C242.5,48.2 259.4,40.7 279.4,40.7 C301.1,40.7 316,51.8 316,68.7 L316,79.1 L286.9,79.1 L286.9,70.4 C286.9,66.6 284.8,64.4 280.1,64.4 C275,64.4 272.7,66.6 272.7,72.2 C272.7,80.6 277.4,81.4 289.8,87.9 C313.1,99.5 316.7,114 316.7,125.7 C316.7,141.7 306.1,156.4 279.7,156.4 Z M361.5,156.4 C337.9,156.4 324,145.3 324,128.6 L324,117 L353.3,117 L353.3,126.7 C353.3,130.5 356.1,133.2 360.9,133.2 C365.7,133.2 368.3,131.3 368.3,124.8 C368.3,114.7 360.9,111.7 343.8,102.8 C328,94.9 324.3,83.7 324.3,71.6 C324.3,48.2 341.2,40.7 361.2,40.7 C382.9,40.7 397.8,51.8 397.8,68.7 L397.8,79.1 L368.7,79.1 L368.7,70.4 C368.7,66.6 366.6,64.4 361.9,64.4 C356.8,64.4 354.5,66.6 354.5,72.2 C354.5,80.6 359.2,81.4 371.6,87.9 C394.9,99.5 398.5,114 398.5,125.7 C398.5,141.7 387.7,156.4 361.5,156.4 Z M440.9,29.7 L440.9,64.2 L465.3,64.2 L465.3,92.2 L440.9,92.2 L440.9,154.4 L407.5,154.4 L407.5,2.8 L473.5,2.8 L473.5,29.9 L440.9,29.7 L440.9,29.7 Z M480.9,29.7 L480.9,2.8 L513,2.8 L513,29.9 L480.9,29.7 L480.9,29.7 Z M480.9,154.5 L480.9,42.7 L513,42.7 L513,154.6 L480.9,154.6 L480.9,154.5 Z M566.9,65.3 L566.9,123.4 C566.9,126.6 570.1,128.9 573.7,128.9 L582.1,128.9 L582.1,154.5 L566.8,154.5 C546.4,154.5 535,140.4 535,126.2 L535,65.3 L521,65.3 L521,42.7 L534.9,42.7 L534.9,23.4 L566.9,23.4 L566.9,42.9 L583.5,42.9 L583.5,65.7 L566.9,65.3 L566.9,65.3 Z M593.9,42.8 C597.5,42.8 600.4,45.6 600.4,49.1 C600.4,52.6 597.6,55.4 593.9,55.4 C590.3,55.4 587.4,52.6 587.4,49.1 C587.4,45.6 590.3,42.8 593.9,42.8 L593.9,42.8 Z M593.9,44.1 C591.2,44.1 589,46.3 589,49.2 C589,52 591.1,54.3 593.9,54.3 C596.6,54.3 598.6,52.1 598.6,49.2 C598.7,46.3 596.6,44.1 593.9,44.1 L593.9,44.1 Z M592.8,52.5 L591.4,52.5 L591.4,46.2 C592,46.2 592.8,46 593.8,46 C595.1,46 595.5,46.2 596,46.5 C596.3,46.8 596.6,47.3 596.6,47.9 C596.6,48.7 596,49.2 595.3,49.3 L595.3,49.3 C595.9,49.5 596.2,49.9 596.4,50.9 C596.6,51.8 596.7,52.2 596.9,52.5 L595.3,52.5 C595.1,52.3 595,51.7 594.8,50.9 C594.6,50.3 594.3,50 593.5,50 L593,50 L592.8,52.5 L592.8,52.5 Z M593,48.8 L593.6,48.8 C594.4,48.8 595,48.5 595,47.9 C595,47.3 594.5,47 593.6,47 C593.3,47 593,47 592.8,47 L593,48.8 L593,48.8 Z" id="Shape"></path>
        </g>
    </g>
</svg>