<?xml version="1.0" encoding="UTF-8"?>
<svg width="103px" height="117px" viewBox="0 0 103 117" version="1.1" xmlns="http://www.w3.org/2000/svg" xmlns:xlink="http://www.w3.org/1999/xlink">
    <!-- Generator: Sketch 55.2 (78181) - https://sketchapp.com -->
    <title>CSS3_logo_and_wordmark</title>
    <desc>Created with Sketch.</desc>
    <g id="Page-1" stroke="none" stroke-width="1" fill="none" fill-rule="evenodd">
        <g id="CSS3_logo_and_wordmark" fill-rule="nonzero">
            <polygon id="polygon2989" fill="#264DE4" points="102.371597 0.39720045 93.0452815 104.875587 51.1231453 116.49778 9.31643793 104.891955 -2.84217094e-14 0.39720045"></polygon>
            <polygon id="polygon2991" fill="#2965F1" points="85.0609325 98.222762 93.0308881 8.94119614 51.1857986 8.94119614 51.1857986 107.614271"></polygon>
            <polygon id="polygon2993" fill="#EBEBEB" points="21.3577314 47.696799 22.5063759 60.5125103 51.1857986 60.5125103 51.1857986 47.696799"></polygon>
            <polygon id="polygon2995" fill="#EBEBEB" points="51.1857986 21.7571897 51.1414897 21.7571897 19.0497181 21.7571897 20.2147314 34.5731832 51.1857986 34.5731832"></polygon>
            <polygon id="polygon2997" fill="#EBEBEB" points="51.1857986 94.3148308 51.1857986 80.9809595 51.1296364 80.9959173 36.8565295 77.1418906 35.944105 66.9206482 29.0084938 66.9206482 23.0790048 66.9206482 24.8745026 87.0433752 51.1268141 94.3311997"></polygon>
            <polygon id="polygon3005" fill="#FFFFFF" points="66.9227922 60.5125103 65.4351988 77.1337061 51.1414897 80.9916839 51.1414897 94.3249908 77.4146857 87.0433752 77.6074435 84.8781662 80.6190368 51.1382168 80.9317391 47.696799 83.2453969 21.7571897 51.1414897 21.7571897 51.1414897 34.5731832 69.2003255 34.5731832 68.0341833 47.696799 51.1414897 47.696799 51.1414897 60.5125103"></polygon>
        </g>
    </g>
</svg>