<?xml version="1.0" encoding="UTF-8"?>
<svg width="590px" height="362px" viewBox="0 0 590 362" version="1.1" xmlns="http://www.w3.org/2000/svg" xmlns:xlink="http://www.w3.org/1999/xlink">
    <!-- Generator: Sketch 55.2 (78181) - https://sketchapp.com -->
    <title>node</title>
    <desc>Created with Sketch.</desc>
    <defs>
        <path d="M60.0400339,1.14000121 L60.0253673,1.14000121 C61.0787012,0.536000868 62.2520352,0.23333403 63.4253692,0.23333403 C64.5987032,0.23333403 65.7720372,0.536000868 66.8253711,1.14000121 L122.985403,33.5626862 C125.092071,34.7760202 126.385405,37.0160215 126.385405,39.4373562 L126.385405,104.32806 C126.385405,106.749394 125.092071,108.989395 122.998736,110.20273 L66.8307044,142.650748 C64.7333699,143.860082 62.1440351,143.860082 60.0440339,142.650748 L3.86666885,110.20273 C1.76266766,108.989395 0.472000267,106.750728 0.472000267,104.32806 L0.472000267,39.4373562 C0.472000267,37.0160215 1.76266766,34.7760202 3.86666885,33.5626862 L60.0400339,1.14000121 Z M84.6786908,83.5380206 L84.6720241,61.1433413 C84.6720241,60.5326743 84.3520239,59.9700073 83.8186903,59.6633405 L64.4186793,48.4633342 C63.8853457,48.1566673 63.232012,48.1566673 62.6986784,48.4633342 L43.3120007,59.6633405 C42.7920004,59.9700073 42.4720003,60.5326743 42.4720003,61.1433413 L42.4720003,83.5380206 C42.4720003,84.146021 42.7920004,84.7100213 43.3253341,85.0126881 L62.725345,96.1940278 C63.2506787,96.4966946 63.9013457,96.4966946 64.4280127,96.1940278 L83.825357,85.0126881 C84.3546906,84.7113546 84.6786908,84.1473543 84.6786908,83.5380206 Z" id="path-1"></path>
        <linearGradient x1="66.4150331%" y1="15.9039155%" x2="33.5487287%" y2="83.9895613%" id="linearGradient-3">
            <stop stop-color="#3E863D" offset="30%"></stop>
            <stop stop-color="#55934F" offset="50%"></stop>
            <stop stop-color="#5AAD45" offset="80%"></stop>
        </linearGradient>
    </defs>
    <g id="Page-1" stroke="none" stroke-width="1" fill="none" fill-rule="evenodd">
        <g id="node">
            <path d="M291.529498,361.240204 C289.58283,361.240204 287.649496,360.729537 285.942828,359.74687 L268.160152,349.218864 C265.50415,347.73353 266.800151,347.208196 267.676151,346.905529 C271.217487,345.665529 271.936154,345.385529 275.716156,343.238861 C276.113489,343.012194 276.63349,343.092194 277.040157,343.332194 L290.701498,351.438865 C291.194831,351.705532 291.894832,351.705532 292.352165,351.438865 L345.618862,320.692181 C346.112196,320.412181 346.432196,319.838847 346.432196,319.25218 L346.432196,257.785479 C346.432196,257.172145 346.112196,256.625478 345.608195,256.318812 L292.362832,225.598794 C291.869498,225.305461 291.216165,225.305461 290.722831,225.598794 L237.488134,256.318812 C236.972134,256.612145 236.644134,257.185479 236.644134,257.772146 L236.644134,319.238847 C236.644134,319.825514 236.964134,320.385514 237.470801,320.665515 L252.057476,329.092186 C259.97748,333.052188 264.817483,328.385519 264.817483,323.692183 L264.817483,263.025482 C264.817483,262.158815 265.497483,261.492148 266.364151,261.492148 L273.110821,261.492148 C273.950821,261.492148 274.644155,262.158815 274.644155,263.025482 L274.644155,323.71885 C274.644155,334.278856 268.884152,340.345526 258.870813,340.345526 C255.790811,340.345526 253.364143,340.345526 246.590806,337.01219 L232.617465,328.958853 C229.16413,326.958851 227.030795,323.225516 227.030795,319.238847 L227.030795,257.772146 C227.030795,253.772143 229.16413,250.038808 232.617465,248.065474 L285.937495,217.305456 C289.31083,215.398788 293.790833,215.398788 297.137501,217.305456 L350.390865,248.078807 C353.830867,250.065475 355.977535,253.785477 355.977535,257.785479 L355.977535,319.25218 C355.977535,323.238849 353.830867,326.958851 350.390865,328.958853 L297.137501,359.71887 C295.430834,360.705537 293.497499,361.212204 291.524165,361.212204" id="Path" fill="#689F63" fill-rule="nonzero"></path>
            <path d="M307.982841,318.885514 C284.676161,318.885514 279.789491,308.186841 279.789491,299.213502 C279.789491,298.360169 280.477492,297.680168 281.332159,297.680168 L288.212163,297.680168 C288.972163,297.680168 289.612164,298.233502 289.732164,298.984169 C290.772164,305.99484 293.865499,309.530842 307.958841,309.530842 C319.185514,309.530842 323.95885,306.99484 323.95885,301.041503 C323.95885,297.614835 322.598849,295.068167 305.158839,293.361499 C290.572164,291.921498 281.558826,288.708163 281.558826,277.04149 C281.558826,266.294817 290.625498,259.894814 305.812173,259.894814 C322.865516,259.894814 331.318854,265.814817 332.385521,278.534824 C332.425521,278.974824 332.265521,279.401491 331.972188,279.721491 C331.678854,280.028158 331.265521,280.214825 330.838854,280.214825 L323.91885,280.214825 C323.198849,280.214825 322.572182,279.708158 322.425516,279.014824 C320.758848,271.641487 316.732179,269.281486 305.785506,269.281486 C293.532166,269.281486 292.105498,273.548155 292.105498,276.748156 C292.105498,280.628159 293.785499,281.761493 310.318842,283.94816 C326.692185,286.121495 334.465522,289.188163 334.465522,300.694837 C334.465522,312.294843 324.785517,318.94818 307.905507,318.94818 L307.982841,318.885514 Z M372.785544,253.761477 L374.572212,253.761477 C376.038879,253.761477 376.318879,252.734809 376.318879,252.134809 C376.318879,250.561475 375.238879,250.561475 374.638878,250.561475 L372.798877,250.561475 L372.785544,253.761477 Z M370.612209,248.721474 L374.572212,248.721474 C375.932212,248.721474 378.598881,248.721474 378.598881,251.761476 C378.598881,253.881477 377.23888,254.321477 376.425546,254.588144 C378.012214,254.694811 378.11888,255.734811 378.332214,257.201479 C378.438881,258.121479 378.612209,259.708147 378.932214,260.24148 L376.492213,260.24148 C376.425546,259.708147 376.052213,256.774812 376.052213,256.614812 C375.892212,255.961478 375.665546,255.641478 374.852212,255.641478 L372.838877,255.641478 L372.838877,260.254814 L370.612209,260.254814 L370.612209,248.721474 Z M365.852207,254.45481 C365.852207,259.228146 369.705542,263.094815 374.438878,263.094815 C379.212214,263.094815 383.06555,259.148146 383.06555,254.45481 C383.06555,249.668141 379.158881,245.868139 374.425545,245.868139 C369.758876,245.868139 365.838873,249.614808 365.838873,254.441477 L365.852207,254.45481 Z M384.718884,254.481477 C384.718884,260.134814 380.092215,264.74815 374.452212,264.74815 C368.852208,264.74815 364.185539,260.188147 364.185539,254.481477 C364.185539,248.668141 368.958875,244.214805 374.452212,244.214805 C379.985548,244.214805 384.705551,248.681474 384.705551,254.481477 L384.718884,254.481477 Z" id="Shape" fill="#689F63" fill-rule="nonzero"></path>
            <path d="M126.581405,120.733402 C126.581405,118.280067 125.288071,116.026732 123.170736,114.806732 L66.6960377,82.3133799 C65.7427038,81.7533795 64.6747032,81.460046 63.5920359,81.420046 L63.0080356,81.420046 C61.9253683,81.460046 60.8573677,81.7533795 59.8880338,82.3133799 L3.41600193,114.806732 C1.31200074,116.033399 0,118.286734 0,120.740068 L0.12400007,208.260118 C0.12400007,209.473452 0.750667091,210.606786 1.81733436,211.206786 C2.85733495,211.846786 4.16400235,211.846786 5.20400294,211.206786 L38.7773552,191.980108 C40.8973564,190.718774 42.1906905,188.48944 42.1906905,186.060105 L42.1906905,145.173415 C42.1906905,142.733414 43.4840246,140.480079 45.5973591,139.266745 L59.8907005,131.034741 C60.9520344,130.421407 62.1173684,130.117407 63.3040358,130.117407 C64.4720364,130.117407 65.6640371,130.41874 66.6960377,131.033407 L80.9827124,139.262745 C83.0973803,140.476079 84.3960477,142.729414 84.3960477,145.169415 L84.3960477,186.053438 C84.3960477,188.480107 85.7067151,190.720108 87.8160496,191.973442 L121.368069,211.186786 C122.421403,211.813453 123.73207,211.813453 124.781404,211.186786 C125.816071,210.586786 126.472071,209.453452 126.472071,208.240118 L126.581405,120.733402 Z M393.072222,166.301427 C393.072222,166.910761 392.748222,167.474761 392.218888,167.776095 L372.821544,178.957434 C372.294877,179.260101 371.64421,179.260101 371.118876,178.957434 L351.718865,167.776095 C351.185532,167.473428 350.865532,166.909428 350.865532,166.301427 L350.865532,143.906748 C350.865532,143.296081 351.185532,142.733414 351.705532,142.426747 L371.09221,131.226741 C371.625543,130.920074 372.278877,130.920074 372.812211,131.226741 L392.212222,142.426747 C392.745555,142.733414 393.065555,143.296081 393.065555,143.906748 L393.072222,166.301427 Z M398.312225,0.432000244 C397.253558,-0.157333422 395.965557,-0.141333413 394.920223,0.468000264 C393.880223,1.08133394 393.237556,2.20133458 393.237556,3.4146686 L393.237556,90.0813842 C393.237556,90.9347181 392.784222,91.7213852 392.045555,92.1480521 C391.312221,92.574719 390.398887,92.574719 389.658887,92.1480521 L375.512212,84.0000475 C373.405544,82.7813801 370.810876,82.7813801 368.696208,84.0000475 L312.202843,116.604066 C310.092175,117.8174 308.789508,120.070735 308.789508,122.497403 L308.789508,187.724106 C308.789508,190.164107 310.092175,192.404109 312.202843,193.630776 L368.696208,226.257461 C370.805543,227.470795 373.402878,227.470795 375.518879,226.257461 L432.012244,193.617443 C434.118912,192.390775 435.425579,190.150774 435.425579,187.710773 L435.425579,25.1506809 C435.425579,22.6760128 434.078912,20.4000115 431.918911,19.1906775 L398.312225,0.432000244 Z M586.436331,143.317414 C588.534999,142.098747 589.827,139.848079 589.827,137.421411 L589.827,121.613402 C589.827,119.181401 588.533666,116.937399 586.430998,115.713399 L530.297633,83.1267136 C528.177632,81.9000463 525.57763,81.9000463 523.457629,83.1267136 L466.977597,115.726732 C464.857596,116.953399 463.564262,119.193401 463.564262,121.633402 L463.564262,186.833439 C463.564262,189.286774 464.884263,191.553442 467.004264,192.766776 L523.124296,224.75346 C525.190963,225.940128 527.724298,225.953461 529.817633,224.79346 L563.764319,205.926783 C564.830986,205.326783 565.510986,204.193449 565.510986,202.966781 C565.510986,201.740114 564.857653,200.593447 563.790985,199.993446 L506.964287,167.380095 C505.897619,166.780094 505.244286,165.64676 505.244286,164.433426 L505.244286,143.980081 C505.244286,142.758747 505.884286,141.633413 506.950953,141.025413 L524.630963,130.825407 C525.684297,130.212074 526.977631,130.212074 528.030965,130.825407 L545.724308,141.025413 C546.777642,141.625413 547.430976,142.758747 547.430976,143.972081 L547.430976,160.05209 C547.430976,161.265424 548.08431,162.398758 549.137644,163.012092 C550.190978,163.612092 551.497645,163.612092 552.550979,162.998759 L586.436331,143.317414 Z" id="Shape" fill="#EAEAEA"></path>
            <path d="M526.050957,140.266746 C526.450964,140.030746 526.952298,140.030746 527.357631,140.266746 L538.197637,146.520083 C538.602971,146.75475 538.850971,147.18675 538.850971,147.653417 L538.850971,160.173424 C538.850971,160.640091 538.602971,161.072091 538.197637,161.306758 L527.357631,167.560095 C526.952298,167.796095 526.450964,167.796095 526.050957,167.560095 L515.217625,161.306758 C514.804291,161.072091 514.550957,160.640091 514.550957,160.173424 L514.550957,147.653417 C514.550957,147.18675 514.790958,146.75475 515.204291,146.520083 L526.050957,140.266746 Z" id="Path" fill="#689F63"></path>
            <g id="Clipped" transform="translate(155.000000, 83.000000)">
                <mask id="mask-2" fill="white">
                    <use xlink:href="#path-1"></use>
                </mask>
                <use id="Path-2" fill="#EAEAEA" xlink:href="#path-1"></use>
                <g id="Group" mask="url(#mask-2)" fill="url(#linearGradient-3)" fill-rule="nonzero">
                    <g transform="translate(-163.741425, -269.021485)" id="Path">
                        <polygon points="240.484136 78.390711 82.1973798 0.804000454 1.03733392 166.369427 159.32009 243.960138"></polygon>
                    </g>
                </g>
            </g>
        </g>
    </g>
</svg>