<?xml version="1.0" encoding="UTF-8"?>
<svg width="32px" height="26px" viewBox="0 0 32 26" version="1.1" xmlns="http://www.w3.org/2000/svg" xmlns:xlink="http://www.w3.org/1999/xlink">
    <!-- Generator: Sketch 55.2 (78181) - https://sketchapp.com -->
    <title>rhel</title>
    <desc>Created with Sketch.</desc>
    <g id="Page-1" stroke="none" stroke-width="1" fill="none" fill-rule="evenodd">
        <g id="rhel" transform="translate(0.600000, 0.000000)" fill-rule="nonzero">
            <path d="M20.6406621,14.8541793 C22.6745379,14.8541793 25.6167724,14.4132414 25.6167724,11.8682483 C25.6228624,11.6720837 25.6059751,11.4758803 25.5664552,11.2836414 L24.354869,5.7494069 C24.0754759,4.53186207 23.8298483,3.97969655 21.7979586,2.91045517 C20.2209103,2.06234483 16.7860966,0.65942069 15.773131,0.65942069 C14.8270345,0.65942069 14.5522759,1.94184828 13.4241103,1.94184828 C12.3383172,1.94184828 11.5319172,0.984496552 10.5163034,0.984496552 C9.54107586,0.984496552 8.90548966,1.68364138 8.41423448,3.12231724 C8.41423448,3.12231724 7.04706207,7.17881379 6.87161379,7.76673103 C6.84375377,7.87476688 6.83171116,7.9862725 6.83586207,8.09776552 C6.83586207,9.67415172 12.7368828,14.8442483 20.6433103,14.8442483 M25.9312552,12.8984276 C26.081742,13.4651011 26.1759909,14.0452313 26.2126345,14.6304 C26.2126345,17.0244414 23.6537379,18.3532138 20.2904276,18.3532138 C12.6865655,18.3611586 6.02548966,13.6756966 6.02548966,10.5785379 C6.0248801,10.1487546 6.10832174,9.72299976 6.27111724,9.32524138 C3.53942069,9.46758621 0.000662068966,9.98201379 0.000662068966,13.2685241 C0.000662068966,18.6518069 12.1257931,25.2870621 21.7264552,25.2870621 C29.0873379,25.2870621 30.9431172,21.7847172 30.9431172,19.0199172 C30.9431172,16.8450207 29.155531,14.3755034 25.9312552,12.9010759" id="a4240430-ad8a-419d-8d6c-db643d766acb" fill="#EE0000"></path>
            <path d="M25.9286069,13.0699034 C26.0790936,13.636577 26.1733426,14.2167072 26.2099862,14.8018759 C26.2099862,17.1959172 23.6510897,18.5246941 20.2877793,18.5246941 C12.6865655,18.5299862 6.02813465,13.8445241 6.02813465,10.7473655 C6.02753144,10.3175825 6.11097297,9.89182823 6.27376552,9.49406897 L6.86962759,7.94482759 C6.84233459,8.0509388 6.83029643,8.1603969 6.83387586,8.26990345 C6.83387586,9.84628966 12.7348966,15.0163862 20.6413241,15.0163862 C22.6752,15.0163862 25.6174345,14.5754483 25.6174345,12.0304552 C25.6235217,11.8342907 25.6066344,11.6380876 25.5671172,11.4458483 L25.9286069,13.0699034 Z" id="f72331e7-d283-4f6d-9965-aa918d2f287b" fill="#000000"></path>
        </g>
    </g>
</svg>