<?xml version="1.0" encoding="UTF-8"?>
<svg width="122px" height="36px" viewBox="0 0 122 36" version="1.1" xmlns="http://www.w3.org/2000/svg" xmlns:xlink="http://www.w3.org/1999/xlink">
    <!-- Generator: Sketch 55.2 (78181) - https://sketchapp.com -->
    <title>Shape</title>
    <desc>Created with Sketch.</desc>
    <g id="Page-1" stroke="none" stroke-width="1" fill="none" fill-rule="evenodd">
        <g id="splunk" transform="translate(0.000000, -1.000000)" fill="#FFFFFF" fill-rule="nonzero">
            <path d="M12.93,22.8 C12.93,23.6019 12.7604,24.347 12.4212,25.036 C12.082,25.7153 11.6014,26.3 10.9982,26.772 C10.3857,27.2531 9.6602,27.621 8.8212,27.885 C7.9826,28.1491 7.0592,28.2812 6.0602,28.2812 C4.8632,28.2812 3.7892,28.1208 2.8472,27.7907 C1.9049,27.4699 0.9532,26.9227 0.0012,26.1677 L1.5752,23.6107 C2.329,24.2428 3.0072,24.7047 3.6202,24.9977 C4.2233,25.2902 4.8452,25.4317 5.4862,25.4317 C6.2683,25.4317 6.8902,25.2335 7.3712,24.8279 C7.8518,24.4222 8.0779,23.8845 8.0779,23.1959 C8.0779,22.9035 8.03078,22.6299 7.946,22.3752 C7.86119,22.1204 7.701,21.8563 7.4749,21.5827 C7.2487,21.3186 6.9284,21.0167 6.5232,20.7054 C6.1274,20.394 5.6092,19.9978 4.9682,19.5354 C4.4876,19.1958 4.0071,18.8373 3.5452,18.4784 C3.0835,18.1105 2.6689,17.7237 2.2822,17.3084 C1.9053,16.8933 1.6038,16.4311 1.3682,15.9124 C1.142,15.403 1.0196,14.8084 1.0196,14.1574 C1.0196,13.4027 1.1798,12.7044 1.4907,12.0814 C1.8016,11.4584 2.2351,10.9304 2.7817,10.4874 C3.3282,10.044 3.9787,9.7044 4.7507,9.4594 C5.5139,9.2141 6.3427,9.0915 7.2477,9.0915 C8.1994,9.0915 9.1137,9.2141 9.9987,9.4689 C10.8844,9.7236 11.7047,10.0915 12.4677,10.5819 L11.0447,12.8839 C10.0742,12.2046 9.0467,11.8559 7.9727,11.8559 C7.3225,11.8559 6.7757,12.0257 6.3517,12.3653 C5.9277,12.7049 5.7109,13.1295 5.7109,13.6483 C5.7109,14.1389 5.8994,14.5823 6.2763,14.9693 C6.6532,15.3655 7.3033,15.9033 8.2273,16.6203 C9.1602,17.2996 9.9333,17.9033 10.5363,18.4123 C11.1488,18.9217 11.6293,19.4123 11.9873,19.8653 C12.3454,20.3182 12.581,20.771 12.7223,21.2423 C12.8636,21.7234 12.9296,22.2328 12.9296,22.7993 L12.93,22.8 Z M29.09,18.489 C29.09,19.1965 29.0146,19.961 28.8639,20.781 C28.7225,21.6018 28.4681,22.357 28.1101,23.055 C27.752,23.7531 27.2903,24.329 26.7151,24.772 C26.1403,25.2248 25.4051,25.4512 24.5291,25.4512 C23.0591,25.4512 21.9001,24.8663 21.0521,23.6872 C20.204,22.5172 19.7801,20.9042 19.7801,18.8572 C19.7801,16.7532 20.2041,15.0932 21.0711,13.8572 C21.9286,12.6212 23.0971,12.0082 24.5671,12.0082 C25.9621,12.0082 27.0641,12.5931 27.8741,13.7442 C28.6845,14.9042 29.0901,16.4892 29.0901,18.4892 L29.09,18.489 Z M34.197,18.3097 C34.197,16.9417 33.9991,15.6967 33.6128,14.5837 C33.217,13.4607 32.6705,12.4987 31.9448,11.6877 C31.2193,10.8764 30.3708,10.2537 29.3818,9.8007 C28.3928,9.3477 27.2998,9.1215 26.1028,9.1215 C24.7838,9.1215 23.6248,9.3762 22.6258,9.8668 C21.627,10.3668 20.6938,11.1498 19.8458,12.2248 L19.8176,9.5548 L15.1156,9.5548 L15.1156,36.9948 L19.8086,36.9948 L19.8086,25.4048 C20.2703,25.9425 20.7131,26.3953 21.1466,26.7628 C21.5706,27.1307 22.0041,27.4326 22.4466,27.659 C22.8894,27.8854 23.3511,28.0552 23.8406,28.1496 C24.3306,28.2439 24.8586,28.2911 25.4146,28.2911 C26.6586,28.2911 27.8266,28.0363 28.9006,27.5458 C29.9746,27.0458 30.9076,26.3478 31.6896,25.4418 C32.4716,24.5358 33.0846,23.4798 33.5276,22.2818 C33.9799,21.0738 34.1966,19.7438 34.1966,18.3098 L34.197,18.3097 Z M36.289,27.8477 L41.113,27.8477 L41.113,0.9977 L36.289,0.9977 L36.289,27.8477 Z M61.689,27.8571 L61.689,9.5371 L56.865,9.5371 L56.865,19.3951 C56.865,20.2725 56.8273,20.9521 56.7519,21.4331 C56.6765,21.9142 56.554,22.3387 56.3844,22.7351 C55.706,24.2441 54.4524,25.0091 52.6344,25.0091 C51.2114,25.0091 50.2224,24.4997 49.6564,23.4711 C49.4303,23.0843 49.2795,22.6409 49.1947,22.1501 C49.1099,21.6596 49.0628,20.9521 49.0628,20.0181 L49.0628,9.5381 L44.2388,9.5381 L44.2388,19.9481 C44.2388,20.6556 44.2482,21.2591 44.2577,21.7401 C44.2671,22.2212 44.3048,22.6646 44.3519,23.0421 C44.399,23.4195 44.4555,23.7591 44.5215,24.0521 C44.578,24.3445 44.6723,24.6275 44.7948,24.8917 C45.2376,26.0147 45.9448,26.8637 46.9338,27.4387 C47.9232,28.0141 49.1388,28.2972 50.5708,28.2972 C51.8618,28.2972 53.0018,28.0707 53.9818,27.6179 C54.9618,27.1651 55.9138,26.4289 56.8368,25.4009 L56.8462,27.8539 L61.6892,27.8633 L61.689,27.8571 Z M82.479,27.8477 L82.479,17.4577 C82.479,16.7501 82.4696,16.1467 82.4601,15.6467 C82.4507,15.1467 82.4225,14.7128 82.3659,14.3447 C82.3188,13.9767 82.2529,13.656 82.1869,13.3824 C82.1115,13.0994 82.0267,12.8258 81.9325,12.5616 C81.4896,11.4676 80.7825,10.6186 79.7935,10.0236 C78.8045,9.4286 77.5885,9.1274 76.1465,9.1274 C74.8555,9.1274 73.7155,9.3538 72.7355,9.8066 C71.7555,10.2594 70.8035,11.0046 69.8805,12.0236 L69.8711,9.5706 L65.0181,9.5706 L65.0181,27.8506 L69.8801,27.8506 L69.8801,17.9826 C69.8801,17.1335 69.9084,16.4636 69.9743,15.9916 C70.0308,15.5199 70.1534,15.0765 70.323,14.6516 C70.6339,13.9157 71.1239,13.3686 71.774,12.9916 C72.4241,12.6146 73.197,12.4256 74.101,12.4256 C75.524,12.4256 76.513,12.935 77.079,13.9636 C77.2958,14.3504 77.4465,14.7938 77.5313,15.2746 C77.6161,15.7558 77.6632,16.4726 77.6632,17.3976 L77.6632,27.8276 L82.4782,27.8371 L82.479,27.8477 Z M102.439,26.6397 L95.09,17.4977 L101.299,10.8377 L97.643,9.2627 L91.179,16.7627 L90.6702,16.7627 L90.6702,1.0027 L85.8082,1.0027 L85.8082,27.8527 L90.6702,27.8527 L90.6702,18.1267 L97.9442,28.2167 L102.4382,26.6407 L102.439,26.6397 Z M121.229,20.0737 L121.229,17.0827 L106.609,9.7427 L106.609,13.0347 L117.939,18.5537 L106.609,24.1477 L106.609,27.3647 L121.229,20.0727 L121.229,20.0737 Z M108.029,4.9937 C107.134,4.9937 106.408,5.7295 106.408,6.6357 C106.408,7.5602 107.134,8.2867 108.029,8.2867 C108.934,8.2867 109.65,7.5603 109.65,6.6357 C109.65,5.7206 108.934,4.9937 108.029,4.9937 Z M108.039,5.2484 C108.764,5.2484 109.348,5.871 109.348,6.6444 C109.348,7.418 108.764,8.0404 108.039,8.0314 C107.304,8.0314 106.719,7.4182 106.719,6.6354 C106.719,5.8712 107.304,5.2484 108.039,5.2484 Z M107.728,6.8054 L107.925,6.8054 C108.161,6.8054 108.274,6.89031 108.321,7.1262 C108.359,7.3715 108.406,7.5319 108.444,7.5885 L108.755,7.5885 C108.726,7.5319 108.679,7.4187 108.642,7.1357 C108.604,6.8621 108.5,6.7206 108.331,6.6923 L108.331,6.67342 C108.529,6.61682 108.689,6.46592 108.689,6.23002 C108.689,6.06022 108.632,5.92812 108.519,5.85262 C108.406,5.76772 108.227,5.71112 107.954,5.71112 C107.737,5.71112 107.586,5.72999 107.436,5.75829 L107.436,7.58829 L107.728,7.58829 L107.728,6.80529 L107.728,6.8054 Z M107.728,5.9563 C107.775,5.94687 107.841,5.93744 107.935,5.93744 C108.265,5.93744 108.378,6.09784 108.378,6.25824 C108.378,6.48464 108.17,6.56954 107.935,6.56954 L107.728,6.56954 L107.728,5.95634 L107.728,5.9563 Z" id="Shape"></path>
        </g>
    </g>
</svg>