<?xml version="1.0" encoding="UTF-8"?>
<svg width="133px" height="158px" viewBox="0 0 133 158" version="1.1" xmlns="http://www.w3.org/2000/svg" xmlns:xlink="http://www.w3.org/1999/xlink">
    <!-- Generator: Sketch 55.2 (78181) - https://sketchapp.com -->
    <title>stackoverflow</title>
    <desc>Created with Sketch.</desc>
    <g id="Page-1" stroke="none" stroke-width="1" fill="none" fill-rule="evenodd">
        <g id="stackoverflow" transform="translate(0.000000, -1.000000)" fill-rule="nonzero">
            <g id="g10" transform="translate(66.500000, 79.160000) scale(-1, 1) rotate(-180.000000) translate(-66.500000, -79.160000) translate(0.000000, 0.160000)">
                <g id="g12">
                    <g id="g14">
                        <g id="g16-Clipped">
                            <g id="g16">
                                <polyline id="path24" fill="#BCBBBC" points="112.095864 14.0239996 112.095864 56.0921319 126.11773 56.0921319 126.11773 0 0 0 0 56.0921319 14.0218663 56.0921319 14.0218663 14.0239996 112.095864 14.0239996"></polyline>
                                <path d="M28.0593326,28.047866 L98.1687975,28.047866 L98.1687975,42.0697323 L28.0593326,42.0697323 L28.0593326,28.047866 Z M90.8947977,157.158663 L79.6437313,148.790663 L121.485997,92.5354644 L132.73693,100.903597 L90.8947977,157.158663 Z M56.1171986,123.993197 L109.990131,79.125998 L118.963597,89.9010644 L65.090665,134.767997 L56.1171986,123.993197 Z M38.5297324,92.8135977 L102.084931,63.2145318 L108.004664,75.9254648 L44.4494656,105.524531 L38.5297324,92.8135977 Z M29.4515993,59.9614652 L98.0625309,45.5415989 L100.946397,59.2639985 L32.3354659,73.6838648 L29.4515993,59.9614652 L29.4515993,59.9614652 Z" id="path26" fill="#F48023"></path>
                            </g>
                        </g>
                    </g>
                </g>
            </g>
        </g>
    </g>
</svg>