<svg width="600" height="600" viewBox="0 0 600 600" fill="none" xmlns="http://www.w3.org/2000/svg">
<g clip-path="url(#clip0)">
<path d="M164.771 219.188V221.188H169.599L166.185 217.774L164.771 219.188ZM121.251 219.188V217.188H119.251V219.188H121.251ZM121.251 241.204H119.251V243.204H121.251V241.204ZM150.563 241.204L151.985 239.798L151.398 239.204H150.563V241.204ZM161.443 252.212H163.443V251.39L162.865 250.806L161.443 252.212ZM161.443 285.364L162.874 286.762L163.443 286.179V285.364H161.443ZM150.563 296.5V298.5H151.405L151.994 297.898L150.563 296.5ZM119.587 296.5L118.165 297.906L118.752 298.5H119.587V296.5ZM108.579 285.364H106.579V286.186L107.157 286.77L108.579 285.364ZM108.579 276.532L107.194 275.089L106.579 275.679V276.532H108.579ZM121.251 264.372H123.251V259.681L119.866 262.929L121.251 264.372ZM121.251 285.364H119.251V287.364H121.251V285.364ZM148.771 285.364V287.364H150.771V285.364H148.771ZM148.771 252.212H150.771V250.212H148.771V252.212ZM119.587 252.212L118.173 253.626L118.759 254.212H119.587V252.212ZM108.579 241.204H106.579V242.032L107.165 242.618L108.579 241.204ZM108.579 219.188L107.157 217.782L106.579 218.366V219.188H108.579ZM119.587 208.052V206.052H118.752L118.165 206.646L119.587 208.052ZM153.635 208.052L155.049 206.638L154.463 206.052H153.635V208.052ZM164.771 217.188H121.251V221.188H164.771V217.188ZM119.251 219.188V241.204H123.251V219.188H119.251ZM121.251 243.204H150.563V239.204H121.251V243.204ZM149.141 242.61L160.021 253.618L162.865 250.806L151.985 239.798L149.141 242.61ZM159.443 252.212V285.364H163.443V252.212H159.443ZM160.012 283.966L149.132 295.102L151.994 297.898L162.874 286.762L160.012 283.966ZM150.563 294.5H119.587V298.5H150.563V294.5ZM121.009 295.094L110.001 283.958L107.157 286.77L118.165 297.906L121.009 295.094ZM110.579 285.364V276.532H106.579V285.364H110.579ZM109.964 277.975L122.636 265.815L119.866 262.929L107.194 275.089L109.964 277.975ZM119.251 264.372V285.364H123.251V264.372H119.251ZM121.251 287.364H148.771V283.364H121.251V287.364ZM150.771 285.364V252.212H146.771V285.364H150.771ZM148.771 250.212H119.587V254.212H148.771V250.212ZM121.001 250.798L109.993 239.79L107.165 242.618L118.173 253.626L121.001 250.798ZM110.579 241.204V219.188H106.579V241.204H110.579ZM110.001 220.594L121.009 209.458L118.165 206.646L107.157 217.782L110.001 220.594ZM119.587 210.052H153.635V206.052H119.587V210.052ZM152.221 209.466L163.357 220.602L166.185 217.774L155.049 206.638L152.221 209.466ZM227.832 296.5V298.5H229.832V296.5H227.832ZM183.672 296.5H181.672V298.5H183.672V296.5ZM183.672 230.068L182.274 228.637L181.672 229.226V230.068H183.672ZM194.808 219.188L196.206 220.619L199.717 217.188H194.808V219.188ZM182.136 219.188H180.136V221.188H182.136V219.188ZM182.136 208.052V206.052H180.136V208.052H182.136ZM227.832 208.052H229.832V206.052H227.832V208.052ZM227.832 219.188V221.188H229.832V219.188H227.832ZM196.344 219.188V217.188H194.344V219.188H196.344ZM196.344 250.676H194.344V255.551L197.768 252.081L196.344 250.676ZM205.688 241.204V239.204H204.852L204.264 239.799L205.688 241.204ZM227.832 241.204H229.832V239.204H227.832V241.204ZM227.832 252.212V254.212H229.832V252.212H227.832ZM196.344 252.212V250.212H194.344V252.212H196.344ZM196.344 285.364H194.344V287.364H196.344V285.364ZM227.832 285.364H229.832V283.364H227.832V285.364ZM227.832 294.5H183.672V298.5H227.832V294.5ZM185.672 296.5V230.068H181.672V296.5H185.672ZM185.07 231.499L196.206 220.619L193.41 217.757L182.274 228.637L185.07 231.499ZM194.808 217.188H182.136V221.188H194.808V217.188ZM184.136 219.188V208.052H180.136V219.188H184.136ZM182.136 210.052H227.832V206.052H182.136V210.052ZM225.832 208.052V219.188H229.832V208.052H225.832ZM227.832 217.188H196.344V221.188H227.832V217.188ZM194.344 219.188V250.676H198.344V219.188H194.344ZM197.768 252.081L207.112 242.609L204.264 239.799L194.92 249.271L197.768 252.081ZM205.688 243.204H227.832V239.204H205.688V243.204ZM225.832 241.204V252.212H229.832V241.204H225.832ZM227.832 250.212H196.344V254.212H227.832V250.212ZM194.344 252.212V285.364H198.344V252.212H194.344ZM196.344 287.364H227.832V283.364H196.344V287.364ZM225.832 285.364V296.5H229.832V285.364H225.832ZM298.125 268.084L299.737 269.268L300.125 268.739V268.084H298.125ZM277.261 296.5V298.5H278.274L278.873 297.684L277.261 296.5ZM263.053 296.5L261.424 297.66L262.022 298.5H263.053V296.5ZM242.829 268.084H240.829V268.723L241.2 269.244L242.829 268.084ZM242.829 208.052V206.052H240.829V208.052H242.829ZM255.757 208.052H257.757V206.052H255.757V208.052ZM255.757 265.78H253.757V266.376L254.083 266.874L255.757 265.78ZM268.813 285.748L267.139 286.842L267.731 287.748H268.813V285.748ZM272.141 285.748V287.748H273.211L273.805 286.857L272.141 285.748ZM285.453 265.78L287.117 266.889L287.453 266.386V265.78H285.453ZM285.453 208.052V206.052H283.453V208.052H285.453ZM298.125 208.052H300.125V206.052H298.125V208.052ZM296.513 266.9L275.649 295.316L278.873 297.684L299.737 269.268L296.513 266.9ZM277.261 294.5H263.053V298.5H277.261V294.5ZM264.682 295.34L244.458 266.924L241.2 269.244L261.424 297.66L264.682 295.34ZM244.829 268.084V208.052H240.829V268.084H244.829ZM242.829 210.052H255.757V206.052H242.829V210.052ZM253.757 208.052V265.78H257.757V208.052H253.757ZM254.083 266.874L267.139 286.842L270.487 284.654L257.431 264.685L254.083 266.874ZM268.813 287.748H272.141V283.748H268.813V287.748ZM273.805 286.857L287.117 266.889L283.789 264.671L270.477 284.639L273.805 286.857ZM287.453 265.78V208.052H283.453V265.78H287.453ZM285.453 210.052H298.125V206.052H285.453V210.052ZM296.125 208.052V268.084H300.125V208.052H296.125ZM371.771 285.364L373.185 286.778L373.771 286.192V285.364H371.771ZM360.635 296.5V298.5H361.463L362.049 297.914L360.635 296.5ZM329.019 296.5L327.597 297.906L328.184 298.5H329.019V296.5ZM318.011 285.364H316.011V286.186L316.589 286.77L318.011 285.364ZM318.011 219.188L316.589 217.782L316.011 218.366V219.188H318.011ZM329.019 208.052V206.052H328.184L327.597 206.646L329.019 208.052ZM360.635 208.052L362.049 206.638L361.463 206.052H360.635V208.052ZM371.771 219.188H373.771V218.36L373.185 217.774L371.771 219.188ZM371.771 228.404L373.192 229.811L373.771 229.227V228.404H371.771ZM359.099 241.204H357.099V246.067L360.52 242.611L359.099 241.204ZM359.099 219.188H361.099V217.188H359.099V219.188ZM330.683 219.188V217.188H328.683V219.188H330.683ZM330.683 285.364H328.683V287.364H330.683V285.364ZM359.099 285.364V287.364H361.099V285.364H359.099ZM359.099 276.02L357.685 274.606L357.099 275.192V276.02H359.099ZM371.771 263.348H373.771V258.52L370.357 261.934L371.771 263.348ZM370.357 283.95L359.221 295.086L362.049 297.914L373.185 286.778L370.357 283.95ZM360.635 294.5H329.019V298.5H360.635V294.5ZM330.441 295.094L319.433 283.958L316.589 286.77L327.597 297.906L330.441 295.094ZM320.011 285.364V219.188H316.011V285.364H320.011ZM319.433 220.594L330.441 209.458L327.597 206.646L316.589 217.782L319.433 220.594ZM329.019 210.052H360.635V206.052H329.019V210.052ZM359.221 209.466L370.357 220.602L373.185 217.774L362.049 206.638L359.221 209.466ZM369.771 219.188V228.404H373.771V219.188H369.771ZM370.35 226.997L357.678 239.797L360.52 242.611L373.192 229.811L370.35 226.997ZM361.099 241.204V219.188H357.099V241.204H361.099ZM359.099 217.188H330.683V221.188H359.099V217.188ZM328.683 219.188V285.364H332.683V219.188H328.683ZM330.683 287.364H359.099V283.364H330.683V287.364ZM361.099 285.364V276.02H357.099V285.364H361.099ZM360.513 277.434L373.185 264.762L370.357 261.934L357.685 274.606L360.513 277.434ZM369.771 263.348V285.364H373.771V263.348H369.771ZM403.344 296.5V298.5H405.344V296.5H403.344ZM390.672 296.5H388.672V298.5H390.672V296.5ZM390.672 208.052V206.052H388.672V208.052H390.672ZM403.344 208.052H405.344V206.052H403.344V208.052ZM403.344 294.5H390.672V298.5H403.344V294.5ZM392.672 296.5V208.052H388.672V296.5H392.672ZM390.672 210.052H403.344V206.052H390.672V210.052ZM401.344 208.052V296.5H405.344V208.052H401.344ZM483.968 296.5V298.5H485.968V296.5H483.968ZM471.296 296.5H469.296V298.5H471.296V296.5ZM471.296 252.212H473.296V250.212H471.296V252.212ZM441.344 252.212V250.212H439.344V252.212H441.344ZM441.344 296.5V298.5H443.344V296.5H441.344ZM428.672 296.5H426.672V298.5H428.672V296.5ZM428.672 208.052V206.052H426.672V208.052H428.672ZM441.344 208.052H443.344V206.052H441.344V208.052ZM441.344 250.164H439.344V254.916L442.742 251.594L441.344 250.164ZM469.76 222.388L471.158 223.818L471.76 223.23V222.388H469.76ZM469.76 208.052V206.052H467.76V208.052H469.76ZM482.432 208.052L484.432 208.068L484.448 206.052H482.432V208.052ZM482.304 223.668L483.697 225.103L484.297 224.521L484.304 223.684L482.304 223.668ZM464.768 240.692L463.375 239.257L462.768 239.846V240.692H464.768ZM464.768 242.356H462.768V244.356H464.768V242.356ZM472.832 242.356L474.238 240.934L473.654 240.356H472.832V242.356ZM483.968 253.364H485.968V252.529L485.374 251.942L483.968 253.364ZM483.968 294.5H471.296V298.5H483.968V294.5ZM473.296 296.5V252.212H469.296V296.5H473.296ZM471.296 250.212H441.344V254.212H471.296V250.212ZM439.344 252.212V296.5H443.344V252.212H439.344ZM441.344 294.5H428.672V298.5H441.344V294.5ZM430.672 296.5V208.052H426.672V296.5H430.672ZM428.672 210.052H441.344V206.052H428.672V210.052ZM439.344 208.052V250.164H443.344V208.052H439.344ZM442.742 251.594L471.158 223.818L468.362 220.958L439.946 248.734L442.742 251.594ZM471.76 222.388V208.052H467.76V222.388H471.76ZM469.76 210.052H482.432V206.052H469.76V210.052ZM480.432 208.036L480.304 223.652L484.304 223.684L484.432 208.068L480.432 208.036ZM480.911 222.233L463.375 239.257L466.161 242.127L483.697 225.103L480.911 222.233ZM462.768 240.692V242.356H466.768V240.692H462.768ZM464.768 244.356H472.832V240.356H464.768V244.356ZM471.426 243.778L482.562 254.786L485.374 251.942L474.238 240.934L471.426 243.778ZM481.968 253.364V296.5H485.968V253.364H481.968ZM197.13 404.5V406.5H199.13V404.5H197.13ZM182.922 404.5H180.922V406.5H182.922V404.5ZM182.922 390.292V388.292H180.922V390.292H182.922ZM197.13 390.292H199.13V388.292H197.13V390.292ZM197.13 402.5H182.922V406.5H197.13V402.5ZM184.922 404.5V390.292H180.922V404.5H184.922ZM182.922 392.292H197.13V388.292H182.922V392.292ZM195.13 390.292V404.5H199.13V390.292H195.13ZM277.718 393.364L279.132 394.778L279.718 394.192V393.364H277.718ZM266.582 404.5V406.5H267.41L267.996 405.914L266.582 404.5ZM222.422 404.5H220.422V406.5H222.422V404.5ZM222.422 338.068L221.024 336.637L220.422 337.226V338.068H222.422ZM233.558 327.188L234.956 328.619L238.467 325.188H233.558V327.188ZM220.886 327.188H218.886V329.188H220.886V327.188ZM220.886 316.052V314.052H218.886V316.052H220.886ZM266.582 316.052L267.996 314.638L267.41 314.052H266.582V316.052ZM277.718 327.188H279.718V326.36L279.132 325.774L277.718 327.188ZM265.046 393.364V395.364H267.046V393.364H265.046ZM265.046 327.188H267.046V325.188H265.046V327.188ZM235.094 327.188V325.188H233.094V327.188H235.094ZM235.094 402.964H233.094V407.886L236.527 404.359L235.094 402.964ZM244.438 393.364V391.364H243.594L243.005 391.969L244.438 393.364ZM276.304 391.95L265.168 403.086L267.996 405.914L279.132 394.778L276.304 391.95ZM266.582 402.5H222.422V406.5H266.582V402.5ZM224.422 404.5V338.068H220.422V404.5H224.422ZM223.82 339.499L234.956 328.619L232.16 325.757L221.024 336.637L223.82 339.499ZM233.558 325.188H220.886V329.188H233.558V325.188ZM222.886 327.188V316.052H218.886V327.188H222.886ZM220.886 318.052H266.582V314.052H220.886V318.052ZM265.168 317.466L276.304 328.602L279.132 325.774L267.996 314.638L265.168 317.466ZM275.718 327.188V393.364H279.718V327.188H275.718ZM267.046 393.364V327.188H263.046V393.364H267.046ZM265.046 325.188H235.094V329.188H265.046V325.188ZM233.094 327.188V402.964H237.094V327.188H233.094ZM236.527 404.359L245.871 394.759L243.005 391.969L233.661 401.569L236.527 404.359ZM244.438 395.364H265.046V391.364H244.438V395.364ZM345.707 404.5V406.5H347.707V404.5H345.707ZM301.547 404.5H299.547V406.5H301.547V404.5ZM301.547 338.068L300.149 336.637L299.547 337.226V338.068H301.547ZM312.683 327.188L314.081 328.619L317.592 325.188H312.683V327.188ZM300.011 327.188H298.011V329.188H300.011V327.188ZM300.011 316.052V314.052H298.011V316.052H300.011ZM345.707 316.052H347.707V314.052H345.707V316.052ZM345.707 327.188V329.188H347.707V327.188H345.707ZM314.219 327.188V325.188H312.219V327.188H314.219ZM314.219 358.676H312.219V363.551L315.643 360.081L314.219 358.676ZM323.563 349.204V347.204H322.727L322.139 347.799L323.563 349.204ZM345.707 349.204H347.707V347.204H345.707V349.204ZM345.707 360.212V362.212H347.707V360.212H345.707ZM314.219 360.212V358.212H312.219V360.212H314.219ZM314.219 393.364H312.219V395.364H314.219V393.364ZM345.707 393.364H347.707V391.364H345.707V393.364ZM345.707 402.5H301.547V406.5H345.707V402.5ZM303.547 404.5V338.068H299.547V404.5H303.547ZM302.945 339.499L314.081 328.619L311.285 325.757L300.149 336.637L302.945 339.499ZM312.683 325.188H300.011V329.188H312.683V325.188ZM302.011 327.188V316.052H298.011V327.188H302.011ZM300.011 318.052H345.707V314.052H300.011V318.052ZM343.707 316.052V327.188H347.707V316.052H343.707ZM345.707 325.188H314.219V329.188H345.707V325.188ZM312.219 327.188V358.676H316.219V327.188H312.219ZM315.643 360.081L324.987 350.609L322.139 347.799L312.795 357.271L315.643 360.081ZM323.563 351.204H345.707V347.204H323.563V351.204ZM343.707 349.204V360.212H347.707V349.204H343.707ZM345.707 358.212H314.219V362.212H345.707V358.212ZM312.219 360.212V393.364H316.219V360.212H312.219ZM314.219 395.364H345.707V391.364H314.219V395.364ZM343.707 393.364V404.5H347.707V393.364H343.707ZM416 376.084L417.612 377.268L418 376.739V376.084H416ZM395.136 404.5V406.5H396.149L396.748 405.684L395.136 404.5ZM380.928 404.5L379.299 405.66L379.897 406.5H380.928V404.5ZM360.704 376.084H358.704V376.723L359.075 377.244L360.704 376.084ZM360.704 316.052V314.052H358.704V316.052H360.704ZM373.632 316.052H375.632V314.052H373.632V316.052ZM373.632 373.78H371.632V374.376L371.958 374.874L373.632 373.78ZM386.688 393.748L385.014 394.842L385.606 395.748H386.688V393.748ZM390.016 393.748V395.748H391.086L391.68 394.857L390.016 393.748ZM403.328 373.78L404.992 374.889L405.328 374.386V373.78H403.328ZM403.328 316.052V314.052H401.328V316.052H403.328ZM416 316.052H418V314.052H416V316.052ZM414.388 374.9L393.524 403.316L396.748 405.684L417.612 377.268L414.388 374.9ZM395.136 402.5H380.928V406.5H395.136V402.5ZM382.557 403.34L362.333 374.924L359.075 377.244L379.299 405.66L382.557 403.34ZM362.704 376.084V316.052H358.704V376.084H362.704ZM360.704 318.052H373.632V314.052H360.704V318.052ZM371.632 316.052V373.78H375.632V316.052H371.632ZM371.958 374.874L385.014 394.842L388.362 392.654L375.306 372.685L371.958 374.874ZM386.688 395.748H390.016V391.748H386.688V395.748ZM391.68 394.857L404.992 374.889L401.664 372.671L388.352 392.639L391.68 394.857ZM405.328 373.78V316.052H401.328V373.78H405.328ZM403.328 318.052H416V314.052H403.328V318.052ZM414 316.052V376.084H418V316.052H414Z" fill="url(#paint0_linear)"/>
<path d="M149.5 150.5L1 299V150.5M149.5 150.5H1M149.5 150.5V2M149.5 150.5L298 2H149.5M1 150.5L149.5 2" stroke="url(#paint1_linear)" stroke-width="4"/>
<path d="M451 150.5L599.5 299V150.5M451 150.5H599.5M451 150.5V2M451 150.5L302.5 2H451M599.5 150.5L451 2" stroke="url(#paint2_linear)" stroke-width="4"/>
<path d="M451 449L599.5 300.5V449M451 449H599.5M451 449V597.5M451 449L302.5 597.5H451M599.5 449L451 597.5" stroke="url(#paint3_linear)" stroke-width="4"/>
<path d="M149.5 449L1 300.5V449M149.5 449H1M149.5 449V597.5M149.5 449L298 597.5H149.5M1 449L149.5 597.5" stroke="url(#paint4_linear)" stroke-width="4"/>
</g>
<defs>
<linearGradient id="paint0_linear" x1="126.5" y1="308.5" x2="495.5" y2="308.5" gradientUnits="userSpaceOnUse">
<stop stop-color="#F155FF"/>
<stop offset="0.5" stop-color="#7EFFFF"/>
<stop offset="1" stop-color="#F155FF"/>
</linearGradient>
<linearGradient id="paint1_linear" x1="149.5" y1="2" x2="149.5" y2="299" gradientUnits="userSpaceOnUse">
<stop stop-color="#77FFFF"/>
<stop offset="1" stop-color="#F155FF"/>
</linearGradient>
<linearGradient id="paint2_linear" x1="451" y1="2" x2="451" y2="299" gradientUnits="userSpaceOnUse">
<stop stop-color="#77FFFF"/>
<stop offset="1" stop-color="#F155FF"/>
</linearGradient>
<linearGradient id="paint3_linear" x1="451" y1="597.5" x2="451" y2="300.5" gradientUnits="userSpaceOnUse">
<stop stop-color="#77FFFF"/>
<stop offset="1" stop-color="#F155FF"/>
</linearGradient>
<linearGradient id="paint4_linear" x1="149.5" y1="597.5" x2="149.5" y2="300.5" gradientUnits="userSpaceOnUse">
<stop stop-color="#77FFFF"/>
<stop offset="1" stop-color="#F155FF"/>
</linearGradient>
<clipPath id="clip0">
<rect width="600" height="600" fill="white"/>
</clipPath>
</defs>
</svg>
