<?xml version="1.0" standalone="no"?>
<!DOCTYPE svg PUBLIC "-//W3C//DTD SVG 20010904//EN"
 "http://www.w3.org/TR/2001/REC-SVG-20010904/DTD/svg10.dtd">
<svg version="1.0" xmlns="http://www.w3.org/2000/svg"
 width="700.000000pt" height="700.000000pt" viewBox="0 0 700.000000 700.000000"
 preserveAspectRatio="xMidYMid meet">
<metadata>
Created by potrace 1.14, written by Peter Selinger 2001-2017
</metadata>
<g transform="translate(0.000000,700.000000) scale(0.100000,-0.100000)"
fill="#000000" stroke="none">
<path d="M3278 6996 c-1 -2 -42 -6 -89 -10 -47 -4 -95 -8 -105 -10 -10 -2 -48
-7 -84 -12 -36 -4 -67 -8 -70 -9 -3 -1 -25 -5 -50 -9 -103 -18 -344 -78 -441
-110 -246 -81 -526 -205 -692 -308 -43 -26 -81 -48 -84 -48 -4 0 -204 -134
-233 -157 -265 -207 -372 -306 -548 -501 -219 -243 -444 -589 -567 -872 -25
-58 -50 -114 -55 -125 -57 -119 -158 -455 -194 -650 -32 -165 -37 -201 -53
-375 -15 -164 -8 -569 12 -715 3 -16 7 -48 9 -70 10 -83 18 -131 26 -165 5
-19 12 -48 14 -65 9 -48 13 -65 36 -155 21 -85 73 -257 89 -295 5 -11 25 -65
46 -120 53 -140 160 -357 250 -508 41 -70 78 -127 80 -127 3 0 1095 1090 2427
2422 2250 2250 2420 2422 2402 2435 -28 20 -294 176 -304 178 -3 1 -50 23
-105 49 -288 138 -638 246 -940 292 -27 4 -52 8 -55 9 -3 1 -41 5 -85 10 -44
4 -89 10 -100 12 -26 4 -532 13 -537 9z"/>
<path d="M3986 3008 l-2419 -2421 24 -18 c48 -37 214 -133 347 -200 348 -174
747 -295 1131 -343 254 -32 698 -28 918 8 21 4 54 9 73 11 19 3 46 7 60 10 14
2 39 7 55 10 191 36 411 101 622 184 130 52 418 192 473 231 15 11 33 20 39
20 6 0 11 5 11 10 0 6 5 10 10 10 15 0 220 141 330 227 152 118 324 280 450
422 36 41 70 79 76 85 65 68 263 353 352 508 47 80 182 351 182 364 0 3 8 24
19 47 53 118 147 417 177 562 63 304 79 465 78 775 0 209 -6 333 -19 410 -2
14 -7 45 -10 70 -3 25 -7 56 -10 70 -3 14 -8 41 -11 60 -41 264 -158 625 -290
896 -89 183 -224 415 -241 413 -5 0 -1097 -1090 -2427 -2421z"/>
</g>
</svg>
